<svg width="40" height="40" viewBox="0 0 40 40" fill="none" xmlns="http://www.w3.org/2000/svg">
<path d="M20 32.4605C14.9789 32.4605 10.8941 28.3755 10.8941 23.3546C10.8941 22.7434 11.3896 22.2479 12.0009 22.2479C12.6121 22.2479 13.1076 22.7434 13.1076 23.3546C13.1076 27.1551 16.1995 30.247 20 30.247C23.8005 30.247 26.8924 27.1551 26.8924 23.3546C26.8924 22.7434 27.3879 22.2479 27.9991 22.2479C28.6104 22.2479 29.1059 22.7434 29.1059 23.3546C29.1059 28.3757 25.0209 32.4605 20 32.4605Z" fill="#AC6AFF"/>
<path d="M16.6477 12.2875L21.7347 7.33773V1.85726C21.7347 1.19132 20.9306 0.856476 20.458 1.32562L9.41164 12.2875L20.458 23.2494C20.9306 23.7185 21.7347 23.3836 21.7347 22.7177V17.2373L16.6477 12.2875Z" fill="#CEE8FA"/>
<path d="M22.8414 6.95258V1.85727C22.8414 0.833125 22.0065 0 20.9802 0C20.4916 0 20.0294 0.191797 19.6784 0.54L8.63195 11.5019C8.42258 11.7096 8.30485 11.9925 8.30485 12.2874C8.30485 12.5823 8.42258 12.8652 8.63195 13.073L19.6784 24.0348C20.0293 24.383 20.4916 24.5748 20.9802 24.5748H20.9803C21.456 24.5748 21.9095 24.3958 22.2575 24.0709C22.6341 23.7191 22.8414 23.2385 22.8414 22.7176V17.2371C22.8414 16.9383 22.7206 16.6522 22.5065 16.4439L18.2347 12.2873L21.6008 9.01211C28.808 9.81102 34.432 15.9377 34.432 23.3545C34.432 31.3122 27.9578 37.7863 20.0001 37.7863C12.0423 37.7863 5.56813 31.3124 5.56813 23.3547C5.56813 22.7434 5.07266 22.248 4.46141 22.248C3.85016 22.248 3.35469 22.7434 3.35469 23.3547C3.35469 32.533 10.8217 40 20 40C29.1783 40 36.6453 32.533 36.6453 23.3547C36.6453 15.1448 30.6709 8.30477 22.8414 6.95258ZM20.628 6.87047L15.8759 11.4943C15.6618 11.7026 15.541 11.9887 15.541 12.2875C15.541 12.5863 15.6618 12.8724 15.8759 13.0807L20.628 17.7045V21.8589L10.9827 12.2875L20.628 2.71609V6.87047Z" fill="#AC6AFF"/>
</svg>
