<svg width="351" height="46" viewBox="0 0 351 46" fill="none" xmlns="http://www.w3.org/2000/svg">
<path d="M23 37.3295C17.2257 37.3295 12.5283 32.6319 12.5283 26.8578C12.5283 26.1549 13.098 25.5851 13.801 25.5851C14.5039 25.5851 15.0737 26.1549 15.0737 26.8578C15.0737 31.2283 18.6295 34.7841 23 34.7841C27.3705 34.7841 30.9263 31.2283 30.9263 26.8578C30.9263 26.1549 31.4961 25.5851 32.199 25.5851C32.9019 25.5851 33.4717 26.1549 33.4717 26.8578C33.4717 32.6321 28.7741 37.3295 23 37.3295Z" fill="#AC6AFF"/>
<path d="M19.1448 14.1306L24.9949 8.43839V2.13585C24.9949 1.37003 24.0702 0.984956 23.5267 1.52447L10.8234 14.1306L23.5267 26.7368C24.0702 27.2763 24.9949 26.8911 24.9949 26.1254V19.8229L19.1448 14.1306Z" fill="#CEE8FA"/>
<path d="M26.2676 7.99546V2.13586C26.2676 0.958094 25.3074 0 24.1273 0C23.5654 0 23.0338 0.220566 22.6302 0.621L9.92674 13.2272C9.68596 13.4661 9.55057 13.7914 9.55057 14.1305C9.55057 14.4697 9.68596 14.795 9.92674 15.0339L22.6302 27.6401C23.0337 28.0405 23.5654 28.2611 24.1273 28.2611H24.1274C24.6744 28.2611 25.196 28.0551 25.5961 27.6815C26.0293 27.2769 26.2676 26.7243 26.2676 26.1252V19.8227C26.2676 19.479 26.1287 19.15 25.8824 18.9105L20.9699 14.1304L24.8409 10.3639C33.1292 11.2827 39.5967 18.3284 39.5967 26.8576C39.5967 36.009 32.1515 43.4543 23.0001 43.4543C13.8487 43.4543 6.40334 36.0093 6.40334 26.8579C6.40334 26.155 5.83355 25.5852 5.13061 25.5852C4.42768 25.5852 3.85789 26.155 3.85789 26.8579C3.85789 37.4129 12.445 46 23 46C33.555 46 42.1421 37.4129 42.1421 26.8579C42.1421 17.4166 35.2715 9.55048 26.2676 7.99546ZM23.7222 7.90104L18.2573 13.2184C18.0111 13.458 17.8722 13.787 17.8722 14.1306C17.8722 14.4743 18.0111 14.8033 18.2573 15.0428L23.7222 20.3602V25.1377L12.6301 14.1306L23.7222 3.12351V7.90104Z" fill="#AC6AFF"/>
<path d="M55.15 12.03H60.37L68.74 33H63.31L61.63 28.68H53.89L52.21 33H46.75L55.15 12.03ZM60.31 24.6L57.76 17.55L55.18 24.6H60.31ZM70.8461 12.03H76.1561V28.53H85.2761V33H70.8461V12.03ZM96.5589 33.45C94.2789 33.45 92.2689 33.01 90.5289 32.13C88.8089 31.25 87.4789 29.99 86.5389 28.35C85.5989 26.69 85.1289 24.75 85.1289 22.53C85.1289 20.31 85.5989 18.38 86.5389 16.74C87.4789 15.08 88.8089 13.81 90.5289 12.93C92.2689 12.03 94.2789 11.58 96.5589 11.58C98.0789 11.58 99.4189 11.73 100.579 12.03C101.759 12.31 102.849 12.77 103.849 13.41V18.45C102.969 17.75 101.969 17.25 100.849 16.95C99.7489 16.63 98.4789 16.47 97.0389 16.47C95.7989 16.47 94.6889 16.72 93.7089 17.22C92.7489 17.7 91.9889 18.4 91.4289 19.32C90.8689 20.24 90.5889 21.31 90.5889 22.53C90.5889 24.43 91.1389 25.93 92.2389 27.03C93.3589 28.13 94.8689 28.68 96.7689 28.68C97.8289 28.68 98.7189 28.5 99.4389 28.14V24.78H96.2289V21.06H104.479V31.5C102.339 32.8 99.6989 33.45 96.5589 33.45ZM117.268 33.45C115.148 33.45 113.228 32.99 111.508 32.07C109.808 31.15 108.458 29.87 107.458 28.23C106.478 26.57 105.988 24.67 105.988 22.53C105.988 20.39 106.478 18.49 107.458 16.83C108.458 15.17 109.808 13.88 111.508 12.96C113.228 12.04 115.148 11.58 117.268 11.58C119.368 11.58 121.268 12.04 122.968 12.96C124.688 13.88 126.038 15.17 127.018 16.83C127.998 18.49 128.488 20.39 128.488 22.53C128.488 24.67 127.998 26.57 127.018 28.23C126.038 29.87 124.688 31.15 122.968 32.07C121.268 32.99 119.368 33.45 117.268 33.45ZM117.268 28.47C118.328 28.47 119.298 28.23 120.178 27.75C121.058 27.27 121.758 26.58 122.278 25.68C122.798 24.78 123.058 23.73 123.058 22.53C123.058 21.33 122.798 20.29 122.278 19.41C121.778 18.51 121.088 17.82 120.208 17.34C119.328 16.84 118.348 16.59 117.268 16.59C116.168 16.59 115.178 16.84 114.298 17.34C113.418 17.82 112.718 18.51 112.198 19.41C111.698 20.29 111.448 21.33 111.448 22.53C111.448 23.73 111.698 24.78 112.198 25.68C112.718 26.58 113.418 27.27 114.298 27.75C115.198 28.23 116.188 28.47 117.268 28.47ZM147.318 33.45C145.998 33.45 144.688 33.32 143.388 33.06C142.088 32.82 141.018 32.48 140.178 32.04V27.27C141.258 27.83 142.378 28.25 143.538 28.53C144.718 28.81 145.838 28.95 146.898 28.95C147.878 28.95 148.618 28.8 149.118 28.5C149.618 28.2 149.868 27.77 149.868 27.21C149.868 26.79 149.728 26.43 149.448 26.13C149.188 25.81 148.798 25.52 148.278 25.26C147.758 25 146.948 24.64 145.848 24.18C143.908 23.36 142.498 22.45 141.618 21.45C140.738 20.45 140.298 19.22 140.298 17.76C140.298 16.56 140.628 15.49 141.288 14.55C141.968 13.61 142.908 12.88 144.108 12.36C145.308 11.84 146.688 11.58 148.248 11.58C149.528 11.58 150.668 11.68 151.668 11.88C152.668 12.08 153.628 12.4 154.548 12.84V17.49C152.788 16.57 151.018 16.11 149.238 16.11C148.278 16.11 147.508 16.27 146.928 16.59C146.368 16.89 146.088 17.33 146.088 17.91C146.088 18.49 146.378 18.96 146.958 19.32C147.538 19.68 148.608 20.17 150.168 20.79C151.588 21.37 152.688 21.94 153.468 22.5C154.268 23.06 154.848 23.71 155.208 24.45C155.568 25.19 155.748 26.13 155.748 27.27C155.748 29.21 155.038 30.73 153.618 31.83C152.218 32.91 150.118 33.45 147.318 33.45ZM157.858 12.03H163.168V33H157.858V12.03ZM165.856 12.03H170.956L177.016 25.02L183.106 12.03H188.176V33H183.226V22.47L178.216 33H175.816L170.836 22.47V33H165.856V12.03ZM200.265 33.45C197.105 33.45 194.725 32.61 193.125 30.93C191.525 29.23 190.725 26.99 190.725 24.21V12.03H196.035V24.27C196.035 25.67 196.405 26.73 197.145 27.45C197.905 28.17 198.945 28.53 200.265 28.53C201.585 28.53 202.615 28.17 203.355 27.45C204.095 26.73 204.465 25.67 204.465 24.27V12.03H209.775V24.21C209.775 27.01 208.975 29.25 207.375 30.93C205.795 32.61 203.425 33.45 200.265 33.45ZM212.321 12.03H217.631V28.53H226.751V33H212.321V12.03ZM235.619 12.03H240.839L249.209 33H243.779L242.099 28.68H234.359L232.679 33H227.219L235.619 12.03ZM240.779 24.6L238.229 17.55L235.649 24.6H240.779ZM252.425 16.5H246.515V12.03H263.675V16.5H257.735V33H252.425V16.5ZM274.944 33.45C272.824 33.45 270.904 32.99 269.184 32.07C267.484 31.15 266.134 29.87 265.134 28.23C264.154 26.57 263.664 24.67 263.664 22.53C263.664 20.39 264.154 18.49 265.134 16.83C266.134 15.17 267.484 13.88 269.184 12.96C270.904 12.04 272.824 11.58 274.944 11.58C277.044 11.58 278.944 12.04 280.644 12.96C282.364 13.88 283.714 15.17 284.694 16.83C285.674 18.49 286.164 20.39 286.164 22.53C286.164 24.67 285.674 26.57 284.694 28.23C283.714 29.87 282.364 31.15 280.644 32.07C278.944 32.99 277.044 33.45 274.944 33.45ZM274.944 28.47C276.004 28.47 276.974 28.23 277.854 27.75C278.734 27.27 279.434 26.58 279.954 25.68C280.474 24.78 280.734 23.73 280.734 22.53C280.734 21.33 280.474 20.29 279.954 19.41C279.454 18.51 278.764 17.82 277.884 17.34C277.004 16.84 276.024 16.59 274.944 16.59C273.844 16.59 272.854 16.84 271.974 17.34C271.094 17.82 270.394 18.51 269.874 19.41C269.374 20.29 269.124 21.33 269.124 22.53C269.124 23.73 269.374 24.78 269.874 25.68C270.394 26.58 271.094 27.27 271.974 27.75C272.874 28.23 273.864 28.47 274.944 28.47ZM288.258 12.03H297.678C300.138 12.03 302.058 12.65 303.438 13.89C304.838 15.13 305.538 16.91 305.538 19.23C305.538 20.79 305.198 22.12 304.518 23.22C303.838 24.32 302.878 25.14 301.638 25.68L305.358 33H299.898L296.568 26.43H293.568V33H288.258V12.03ZM296.748 21.96C297.808 21.96 298.628 21.76 299.208 21.36C299.788 20.94 300.078 20.23 300.078 19.23C300.078 18.19 299.788 17.48 299.208 17.1C298.648 16.7 297.828 16.5 296.748 16.5H293.568V21.96H296.748Z" fill="white"/>
</svg>
